<svg width="24" height="24" viewBox="0 0 24 24" fill="none" xmlns="http://www.w3.org/2000/svg">
<path d="M17.6585 6.33333C16.1533 4.83333 14.1463 4 12.0279 4C7.62369 4 4.05575 7.55556 4.05575 11.9444C4.05575 13.3333 4.44599 14.7222 5.11498 15.8889L4 20L8.23694 18.8889C9.40767 19.5 10.6899 19.8333 12.0279 19.8333C16.4321 19.8333 20 16.2778 20 11.8889C19.9443 9.83333 19.1638 7.83333 17.6585 6.33333ZM15.8746 14.7778C15.7073 15.2222 14.9268 15.6667 14.5366 15.7222C14.2021 15.7778 13.7561 15.7778 13.3101 15.6667C13.0314 15.5556 12.6411 15.4444 12.1951 15.2222C10.1882 14.3889 8.90592 12.3889 8.79443 12.2222C8.68293 12.1111 7.95819 11.1667 7.95819 10.1667C7.95819 9.16667 8.45993 8.72222 8.62718 8.5C8.79443 8.27778 9.01742 8.27778 9.18467 8.27778C9.29617 8.27778 9.46341 8.27778 9.57491 8.27778C9.68641 8.27778 9.85366 8.22222 10.0209 8.61111C10.1882 9 10.5784 10 10.6341 10.0556C10.6899 10.1667 10.6899 10.2778 10.6341 10.3889C10.5784 10.5 10.5226 10.6111 10.4111 10.7222C10.2996 10.8333 10.1882 11 10.1324 11.0556C10.0209 11.1667 9.90941 11.2778 10.0209 11.4444C10.1324 11.6667 10.5226 12.2778 11.1359 12.8333C11.9164 13.5 12.5296 13.7222 12.7526 13.8333C12.9756 13.9444 13.0871 13.8889 13.1986 13.7778C13.3101 13.6667 13.7003 13.2222 13.8118 13C13.9233 12.7778 14.0906 12.8333 14.2578 12.8889C14.4251 12.9444 15.4286 13.4444 15.5958 13.5556C15.8188 13.6667 15.9303 13.7222 15.9861 13.7778C16.0418 13.9444 16.0418 14.3333 15.8746 14.7778Z" fill="white"/>
</svg>
