<svg aria-hidden="true" xmlns="http://www.w3.org/2000/svg" xmlns:xlink="http://www.w3.org/1999/xlink"><symbol viewBox="0 0 24 18" fill="none" id="icon-burger" xmlns="http://www.w3.org/2000/svg">
<path d="M24 9C24 9.26522 23.8946 9.51957 23.7071 9.70711C23.5196 9.89464 23.2652 10 23 10H1C0.734784 10 0.48043 9.89464 0.292893 9.70711C0.105357 9.51957 0 9.26522 0 9C0 8.73478 0.105357 8.48043 0.292893 8.29289C0.48043 8.10536 0.734784 8 1 8H23C23.2652 8 23.5196 8.10536 23.7071 8.29289C23.8946 8.48043 24 8.73478 24 9ZM1 2H23C23.2652 2 23.5196 1.89464 23.7071 1.70711C23.8946 1.51957 24 1.26522 24 1C24 0.734784 23.8946 0.48043 23.7071 0.292893C23.5196 0.105357 23.2652 0 23 0H1C0.734784 0 0.48043 0.105357 0.292893 0.292893C0.105357 0.48043 0 0.734784 0 1C0 1.26522 0.105357 1.51957 0.292893 1.70711C0.48043 1.89464 0.734784 2 1 2ZM23 16H1C0.734784 16 0.48043 16.1054 0.292893 16.2929C0.105357 16.4804 0 16.7348 0 17C0 17.2652 0.105357 17.5196 0.292893 17.7071C0.48043 17.8946 0.734784 18 1 18H23C23.2652 18 23.5196 17.8946 23.7071 17.7071C23.8946 17.5196 24 17.2652 24 17C24 16.7348 23.8946 16.4804 23.7071 16.2929C23.5196 16.1054 23.2652 16 23 16Z" fill="currentColor"/>
</symbol><symbol viewBox="0 0 14 14" fill="none" id="icon-close" xmlns="http://www.w3.org/2000/svg">
<path d="M1 1L7 7M13 13L7 7M7 7L13 1L1 13" stroke="currentColor" stroke-linecap="round"/>
</symbol><symbol viewBox="0 0 24 24" fill="none" id="icon-eye" xmlns="http://www.w3.org/2000/svg">
<path d="M23.1853 11.6962C23.1525 11.6222 22.3584 9.86062 20.5931 8.09531C18.2409 5.74312 15.27 4.5 12 4.5C8.72999 4.5 5.75905 5.74312 3.40687 8.09531C1.64155 9.86062 0.843741 11.625 0.814679 11.6962C0.772035 11.7922 0.75 11.896 0.75 12.0009C0.75 12.1059 0.772035 12.2097 0.814679 12.3056C0.847491 12.3797 1.64155 14.1403 3.40687 15.9056C5.75905 18.2569 8.72999 19.5 12 19.5C15.27 19.5 18.2409 18.2569 20.5931 15.9056C22.3584 14.1403 23.1525 12.3797 23.1853 12.3056C23.2279 12.2097 23.25 12.1059 23.25 12.0009C23.25 11.896 23.2279 11.7922 23.1853 11.6962ZM12 18C9.11437 18 6.59343 16.9509 4.50655 14.8828C3.65028 14.0313 2.92179 13.0603 2.34374 12C2.92164 10.9396 3.65014 9.9686 4.50655 9.11719C6.59343 7.04906 9.11437 6 12 6C14.8856 6 17.4066 7.04906 19.4934 9.11719C20.3514 9.9684 21.0815 10.9394 21.6609 12C20.985 13.2619 18.0403 18 12 18ZM12 7.5C11.11 7.5 10.2399 7.76392 9.49993 8.25839C8.7599 8.75285 8.18313 9.45566 7.84253 10.2779C7.50194 11.1002 7.41282 12.005 7.58646 12.8779C7.76009 13.7508 8.18867 14.5526 8.81801 15.182C9.44735 15.8113 10.2492 16.2399 11.1221 16.4135C11.995 16.5872 12.8998 16.4981 13.7221 16.1575C14.5443 15.8169 15.2471 15.2401 15.7416 14.5001C16.2361 13.76 16.5 12.89 16.5 12C16.4988 10.8069 16.0242 9.66303 15.1806 8.81939C14.337 7.97575 13.1931 7.50124 12 7.5ZM12 15C11.4066 15 10.8266 14.8241 10.3333 14.4944C9.83993 14.1648 9.45542 13.6962 9.22835 13.1481C9.00129 12.5999 8.94188 11.9967 9.05764 11.4147C9.17339 10.8328 9.45911 10.2982 9.87867 9.87868C10.2982 9.45912 10.8328 9.1734 11.4147 9.05764C11.9967 8.94189 12.5999 9.0013 13.148 9.22836C13.6962 9.45542 14.1648 9.83994 14.4944 10.3333C14.824 10.8266 15 11.4067 15 12C15 12.7956 14.6839 13.5587 14.1213 14.1213C13.5587 14.6839 12.7956 15 12 15Z" fill="currentColor"/>
</symbol><symbol viewBox="0 0 24 24" fill="none" id="icon-location" xmlns="http://www.w3.org/2000/svg">
<path d="M12 14C14.206 14 16 12.206 16 10C16 7.794 14.206 6 12 6C9.794 6 8 7.794 8 10C8 12.206 9.794 14 12 14ZM12 8C13.103 8 14 8.897 14 10C14 11.103 13.103 12 12 12C10.897 12 10 11.103 10 10C10 8.897 10.897 8 12 8Z" fill="currentColor"/>
<path d="M11.42 21.814C11.5893 21.9346 11.7921 21.9994 12 21.9994C12.2079 21.9994 12.4106 21.9346 12.58 21.814C12.884 21.599 20.029 16.44 20 10C20 5.589 16.411 2 12 2C7.58897 2 3.99997 5.589 3.99997 9.995C3.97097 16.44 11.116 21.599 11.42 21.814ZM12 4C15.309 4 18 6.691 18 10.005C18.021 14.443 13.612 18.428 12 19.735C10.389 18.427 5.97897 14.441 5.99997 10C5.99997 6.691 8.69097 4 12 4Z" fill="currentColor"/>
</symbol><symbol viewBox="0 0 24 24" fill="none" id="icon-mail" xmlns="http://www.w3.org/2000/svg">
<path d="M4 20C3.45 20 2.97933 19.8043 2.588 19.413C2.19667 19.0217 2.00067 18.5507 2 18V6C2 5.45 2.196 4.97933 2.588 4.588C2.98 4.19667 3.45067 4.00067 4 4H20C20.55 4 21.021 4.196 21.413 4.588C21.805 4.98 22.0007 5.45067 22 6V18C22 18.55 21.8043 19.021 21.413 19.413C21.0217 19.805 20.5507 20.0007 20 20H4ZM12 13L4 8V18H20V8L12 13ZM12 11L20 6H4L12 11ZM4 8V6V18V8Z" fill="currentColor"/>
</symbol><symbol viewBox="0 0 32 32" fill="none" id="icon-play" xmlns="http://www.w3.org/2000/svg">
<path d="M29.05 14.3111L11.04 3.29364C10.7364 3.10771 10.3886 3.0062 10.0326 2.99961C9.67661 2.99302 9.32532 3.08158 9.015 3.25614C8.70764 3.42799 8.4516 3.67862 8.2732 3.98223C8.09481 4.28585 8.00051 4.6315 8 4.98364V27.0161C8.00232 27.5444 8.21429 28.0501 8.58933 28.4221C8.96437 28.794 9.47177 29.0019 10 28.9999C10.3687 28.9997 10.7302 28.8981 11.045 28.7061L29.05 17.6886C29.3394 17.5122 29.5786 17.2644 29.7446 16.9688C29.9105 16.6733 29.9977 16.3401 29.9977 16.0011C29.9977 15.6622 29.9105 15.329 29.7446 15.0334C29.5786 14.7379 29.3394 14.49 29.05 14.3136V14.3111Z" fill="currentColor"/>
</symbol><symbol viewBox="0 0 24 24" fill="none" id="icon-tg" xmlns="http://www.w3.org/2000/svg">
<path d="M19.6471 5.49595L17.172 18.4172C17.172 18.4172 16.8257 19.313 15.8744 18.8834L10.1638 14.3492L10.1373 14.3358C10.9087 13.6186 16.8902 8.04925 17.1516 7.79681C17.5563 7.40583 17.3051 7.17307 16.8352 7.46841L7.99971 13.2789L4.591 12.0912C4.591 12.0912 4.05456 11.8936 4.00296 11.464C3.95067 11.0336 4.60865 10.8009 4.60865 10.8009L18.5049 5.1556C18.5049 5.1556 19.6471 4.63594 19.6471 5.49595Z" fill="currentColor"/>
</symbol><symbol viewBox="0 0 24 24" fill="none" id="icon-wh" xmlns="http://www.w3.org/2000/svg">
<path d="M17.6585 6.33333C16.1533 4.83333 14.1463 4 12.0279 4C7.62369 4 4.05575 7.55556 4.05575 11.9444C4.05575 13.3333 4.44599 14.7222 5.11498 15.8889L4 20L8.23694 18.8889C9.40767 19.5 10.6899 19.8333 12.0279 19.8333C16.4321 19.8333 20 16.2778 20 11.8889C19.9443 9.83333 19.1638 7.83333 17.6585 6.33333ZM15.8746 14.7778C15.7073 15.2222 14.9268 15.6667 14.5366 15.7222C14.2021 15.7778 13.7561 15.7778 13.3101 15.6667C13.0314 15.5556 12.6411 15.4444 12.1951 15.2222C10.1882 14.3889 8.90592 12.3889 8.79443 12.2222C8.68293 12.1111 7.95819 11.1667 7.95819 10.1667C7.95819 9.16667 8.45993 8.72222 8.62718 8.5C8.79443 8.27778 9.01742 8.27778 9.18467 8.27778C9.29617 8.27778 9.46341 8.27778 9.57491 8.27778C9.68641 8.27778 9.85366 8.22222 10.0209 8.61111C10.1882 9 10.5784 10 10.6341 10.0556C10.6899 10.1667 10.6899 10.2778 10.6341 10.3889C10.5784 10.5 10.5226 10.6111 10.4111 10.7222C10.2996 10.8333 10.1882 11 10.1324 11.0556C10.0209 11.1667 9.90941 11.2778 10.0209 11.4444C10.1324 11.6667 10.5226 12.2778 11.1359 12.8333C11.9164 13.5 12.5296 13.7222 12.7526 13.8333C12.9756 13.9444 13.0871 13.8889 13.1986 13.7778C13.3101 13.6667 13.7003 13.2222 13.8118 13C13.9233 12.7778 14.0906 12.8333 14.2578 12.8889C14.4251 12.9444 15.4286 13.4444 15.5958 13.5556C15.8188 13.6667 15.9303 13.7222 15.9861 13.7778C16.0418 13.9444 16.0418 14.3333 15.8746 14.7778Z" fill="currentColor"/>
</symbol></svg>